<svg xmlns="http://www.w3.org/2000/svg" version="1.1" xmlns:xlink="http://www.w3.org/1999/xlink" width="512" height="512" x="0" y="0" viewBox="0 0 60 60" style="enable-background:new 0 0 512 512" xml:space="preserve" class=""><g><path fill="#efefef" d="M45 5H5a4 4 0 0 0-4 4v40a4 4 0 0 0 4 4h27.88L49 31.58V9a4 4 0 0 0-4-4z" opacity="1" data-original="#ecf0f1" class=""></path><g fill="#bdc3c7"><rect width="6" height="6" x="7" y="43" rx="1" fill="#6e6e6e" opacity="1" data-original="#bdc3c7" class=""></rect><rect width="6" height="6" x="17" y="43" rx="1" fill="#6e6e6e" opacity="1" data-original="#bdc3c7" class=""></rect><rect width="6" height="6" x="27" y="43" rx="1" fill="#6e6e6e" opacity="1" data-original="#bdc3c7" class=""></rect><rect width="6" height="6" x="7" y="33" rx="1" fill="#6e6e6e" opacity="1" data-original="#bdc3c7" class=""></rect><rect width="6" height="6" x="17" y="33" rx="1" fill="#6e6e6e" opacity="1" data-original="#bdc3c7" class=""></rect><path d="M33 37.79V34a1 1 0 0 0-1-1h-4a1 1 0 0 0-1 1v4a1 1 0 0 0 1 1h4.35z" fill="#6e6e6e" opacity="1" data-original="#bdc3c7" class=""></path></g><path fill="#3c96e6" d="M19 29a1 1 0 0 1-.707-.293l-5-5a1 1 0 0 1 0-1.414l5-5a1 1 0 0 1 1.414 1.414L15.414 23l4.293 4.293A1 1 0 0 1 19 29zM31 29a1 1 0 0 1-.707-1.707L34.586 23l-4.293-4.293a1 1 0 0 1 1.414-1.414l5 5a1 1 0 0 1 0 1.414l-5 5A1 1 0 0 1 31 29zM23 29a1 1 0 0 1-.929-1.371l4-10a1 1 0 1 1 1.858.742l-4 10A1 1 0 0 1 23 29zM49 9v4H1V9a4 4 0 0 1 4-4h40a4 4 0 0 1 4 4z" opacity="1" data-original="#e64c3c" class=""></path><rect width="4" height="8" x="28" y="1" fill="#0eb600" rx="2" opacity="1" data-original="#f3d55b" class=""></rect><rect width="4" height="8" x="18" y="1" fill="#0eb600" rx="2" opacity="1" data-original="#f3d55b" class=""></rect><rect width="4" height="8" x="8" y="1" fill="#0eb600" rx="2" opacity="1" data-original="#f3d55b" class=""></rect><rect width="4" height="8" x="38" y="1" fill="#0eb600" rx="2" opacity="1" data-original="#f3d55b" class=""></rect><circle cx="45" cy="45" r="14" fill="#3c96e6" opacity="1" data-original="#e64c3c" class=""></circle><circle cx="45" cy="45" r="10" fill="#efefef" opacity="1" data-original="#ecf0f1" class=""></circle><path fill="#6e6e6e" d="M48 48a1 1 0 0 1-.554-.168l-3-2A1 1 0 0 1 44 45v-5a1 1 0 0 1 2 0v4.465l2.555 1.7A1 1 0 0 1 48 48z" opacity="1" data-original="#bdc3c7" class=""></path></g></svg>